<svg width="80" height="70" viewBox="0 0 80 70" fill="none" xmlns="http://www.w3.org/2000/svg">
<path fill-rule="evenodd" clip-rule="evenodd" d="M54.9039 19.472L59.2052 19.4776L58.8144 23.7207L58.0036 22.8419L52.4077 27.5197L49.7174 24.5095L41.5774 31.3532L39.8521 25.5559L36.5716 36.0952H18.1596L12.1516 31.7437H33.129L39.8521 10.897L44.2145 24.2085L50.1534 19.2448L53.067 22.6299L55.7466 20.362L54.9039 19.472Z" fill="#11287A"/>
<path fill-rule="evenodd" clip-rule="evenodd" d="M18.6346 36.7913L24.6208 41.1284H54.8255L60.7343 36.7913H18.636H18.6346ZM25.0751 41.8088L29.1728 44.7773L28.7055 46.1611H50.9206L50.4435 44.6964L54.3771 41.8089H25.0763L25.0751 41.8088ZM28.5943 46.8564L27.195 51.1941H52.4171L51.0302 46.8564H28.5944H28.5943ZM27.0844 51.8888L25.6846 56.2265H35.694L39.8222 53.1953L44.0055 56.2265H53.9136L52.5268 51.8888H27.084H27.0844ZM25.574 56.9212L24.1701 61.2741H29.2963L35.2258 56.9212H25.574H25.574ZM44.4803 56.9212L50.4877 61.2741H55.4145L54.0235 56.9212H44.4804H44.4803ZM24.0641 61.9542L22.5796 66.556L28.9108 61.9542H24.0641ZM50.9431 61.9542L56.9006 66.2706L55.5215 61.9542H50.943H50.9431Z" fill="#990000"/>
<path d="M43.4072 2.92228e-05L40.9819 4.72854C40.7735 5.13633 40.5836 5.41006 40.4305 5.54316C40.3452 5.60931 40.1893 5.65226 39.9357 5.67962L39.9243 5.84047L41.7857 5.97071L41.7971 5.80934C41.5119 5.77162 41.3357 5.71465 41.2514 5.63707C41.1759 5.55977 41.1368 5.47599 41.1429 5.38646C41.1503 5.27913 41.208 5.10329 41.322 4.88678L41.7904 3.97617L44.09 4.1365L44.388 5.01079C44.485 5.29611 44.5242 5.50519 44.5157 5.63032C44.5088 5.72888 44.4673 5.80676 44.373 5.87211C44.2882 5.92923 44.1237 5.96309 43.8906 5.95565L43.8792 6.1165L46.2151 6.27942L46.226 6.11857C45.9857 6.08377 45.8024 6.00815 45.6762 5.88249C45.5507 5.74806 45.416 5.4867 45.2743 5.07254L43.5596 0.0103608L43.4081 0L43.4072 2.92228e-05ZM36.389 0.164511L33.704 0.351818L33.7149 0.512668L33.9387 0.497102C34.1625 0.481428 34.3369 0.531975 34.4621 0.649132C34.5496 0.741848 34.6014 0.972096 34.6272 1.33871L34.8941 5.15706C34.918 5.49658 34.9058 5.71322 34.8499 5.81603C34.754 5.98446 34.5806 6.07792 34.3302 6.09519L34.1064 6.11076L34.1173 6.27161L38.7084 5.95146L39.0967 4.30664L38.9519 4.29004C38.8251 4.66728 38.692 4.94609 38.5604 5.12594C38.4203 5.30632 38.2583 5.43477 38.0754 5.51925C37.901 5.59443 37.5812 5.65237 37.1247 5.68425L36.6953 5.71435C36.3107 5.74118 36.0857 5.73873 36.0121 5.71695C35.9387 5.6949 35.8819 5.65428 35.8418 5.59398C35.791 5.5079 35.7521 5.33994 35.7353 5.09847L35.4748 1.37814C35.4506 1.0296 35.4617 0.804368 35.5002 0.711918C35.5382 0.610436 35.6217 0.523469 35.7432 0.461304C35.8642 0.389841 36.0861 0.347144 36.3995 0.32536L36.3881 0.16451L36.389 0.164511ZM48.3595 0.949567L48.318 1.10523L48.5345 1.16334C48.7511 1.22126 48.8991 1.32615 48.9706 1.47518C49.0317 1.59366 49.0061 1.828 48.9109 2.18292L47.9181 5.88917C47.8323 6.20929 47.7508 6.41013 47.6559 6.4869C47.5103 6.61495 47.3161 6.64584 47.0822 6.58341L46.8657 6.52582L46.8242 6.68148L49.5272 7.4048C50.1772 7.5788 50.6697 7.64592 51.0142 7.60819C51.3673 7.57286 51.661 7.4471 51.9125 7.23616C52.164 7.02522 52.3229 6.78002 52.3995 6.49417C52.5016 6.11321 52.455 5.76649 52.2474 5.43256C52.0993 5.18868 51.8392 4.98048 51.4639 4.78708C51.8321 4.76503 52.136 4.66986 52.3689 4.49081C52.6134 4.30591 52.7674 4.07827 52.8439 3.79242C52.9346 3.45476 52.9006 3.13031 52.7448 2.81019C52.5893 2.4898 52.3177 2.22201 51.9187 2.0132C51.6603 1.86975 51.2968 1.73564 50.8377 1.61264L48.3547 0.949601L48.3595 0.949567ZM43.1517 1.34806L43.9871 3.80543L41.9471 3.66326L43.1517 1.34807V1.34806ZM29.0513 1.38023L24.8436 2.74485L24.8939 2.89843L25.0985 2.83202C25.2349 2.78765 25.3745 2.78022 25.516 2.80971C25.6151 2.82485 25.6857 2.8681 25.7449 2.93372C25.8069 3.00811 25.8845 3.18999 25.9786 3.48008L27.1655 7.13133C27.2734 7.46394 27.3113 7.69698 27.2709 7.8043C27.2127 7.97379 27.0642 8.09754 26.8337 8.17219L26.6287 8.23861L26.679 8.39219L29.1027 7.60559L29.0524 7.45201L28.8478 7.51842C28.7199 7.55987 28.5803 7.56711 28.4386 7.53762C28.3283 7.5169 28.2492 7.47729 28.2014 7.41725C28.1368 7.33436 28.0586 7.15196 27.9672 6.87036L27.3908 5.09635L28.4153 4.76427C28.6029 4.70344 28.7561 4.68181 28.8665 4.70253C28.9856 4.72033 29.0787 4.77504 29.1718 4.85819C29.256 4.94373 29.3348 5.09765 29.4127 5.30806L29.5658 5.25825L28.9454 3.34777L28.7917 3.39758C28.8518 3.727 28.8498 3.95393 28.772 4.09234C28.6943 4.23048 28.5398 4.33699 28.301 4.41456L27.2771 4.74664L26.5565 2.52898L27.802 2.12477C28.0923 2.03073 28.3228 1.98432 28.4786 1.99973C28.6405 2.00371 28.7819 2.06153 28.923 2.1476C29.0586 2.2451 29.205 2.40499 29.3592 2.64729L29.504 2.60007L29.0513 1.38021L29.0513 1.38023ZM49.8979 1.76055C50.1393 1.76028 50.3977 1.8013 50.6835 1.87781C51.2122 2.01915 51.5803 2.23832 51.7842 2.55286C51.9985 2.86103 52.0605 3.18394 51.9701 3.52159C51.9119 3.73784 51.7982 3.92115 51.6456 4.07523C51.4842 4.22692 51.2912 4.32357 51.0599 4.35439C50.8289 4.38521 50.5053 4.34532 50.0895 4.23401C49.9335 4.1923 49.7866 4.15258 49.6503 4.10689C49.5227 4.06332 49.406 4.01351 49.3065 3.96835L49.8979 1.76057L49.8979 1.76055ZM57.4241 4.33571C57.1565 4.32493 56.8847 4.35406 56.6079 4.4234C55.7516 4.63593 55.0991 5.14584 54.6426 5.96912C54.1944 6.77673 54.0727 7.56947 54.2766 8.34865C54.4802 9.12784 54.9452 9.71336 55.6593 10.1087C56.3651 10.4997 57.1126 10.5756 57.8981 10.324C58.6874 10.0846 59.2993 9.57307 59.7382 8.7814C60.1644 8.01311 60.266 7.23926 60.0544 6.45583C59.8468 5.66469 59.4057 5.09243 58.731 4.71864C58.3044 4.48237 57.8701 4.35368 57.4241 4.33572V4.33571ZM49.2017 4.35802C49.2843 4.36147 49.3819 4.37868 49.5142 4.40472C49.6355 4.43713 49.7849 4.46791 49.967 4.5168C50.3655 4.62359 50.6869 4.77424 50.9317 4.96978C51.1704 5.15414 51.3255 5.37199 51.3912 5.61214C51.4569 5.85257 51.4619 6.07671 51.4016 6.30172C51.3112 6.63964 51.1048 6.89043 50.7759 7.04371C50.4447 7.2055 50.0247 7.21374 49.5132 7.07692C49.1929 6.99111 48.881 6.87041 48.5729 6.70438L49.2017 4.35806V4.35802ZM21.7723 4.5121C21.3115 4.50618 20.8726 4.62146 20.4509 4.85507C19.7683 5.23311 19.3095 5.77362 19.0755 6.49729C18.8022 7.33545 18.8893 8.15836 19.3461 8.98164C19.7937 9.78926 20.402 10.3131 21.1711 10.5533C21.9402 10.7937 22.6835 10.7099 23.3975 10.3146C24.1036 9.92356 24.5638 9.33037 24.7667 8.53126C24.9817 7.73587 24.8717 6.94574 24.4328 6.1538C24.0064 5.38551 23.4035 4.89018 22.6265 4.65428C22.3335 4.56292 22.0489 4.51566 21.7723 4.5121ZM57.6261 4.73107C57.9192 4.71726 58.2109 4.79078 58.5051 4.95366C58.9993 5.22756 59.2884 5.61314 59.3754 6.12215C59.4894 6.74911 59.2921 7.51089 58.8006 8.39687C58.3441 9.22016 57.8567 9.72893 57.3218 9.93481C56.7995 10.1372 56.2868 10.0994 55.8006 9.83C55.3454 9.57789 55.0724 9.20121 54.9812 8.69991C54.8728 8.04532 55.0535 7.29485 55.5275 6.44022C55.9836 5.6172 56.5043 5.08553 57.0965 4.84989C57.2742 4.77916 57.4503 4.73935 57.6262 4.73107H57.6261ZM21.4454 4.92952C21.6258 4.93677 21.8051 4.97721 21.9843 5.05093C22.5763 5.28657 23.1184 5.85777 23.61 6.74349C24.0667 7.56651 24.2402 8.24931 24.1318 8.81172C24.0268 9.3619 23.7231 9.77569 23.2366 10.0451C22.7818 10.2969 22.3173 10.3292 21.8436 10.1405C21.2306 9.88578 20.689 9.3348 20.2153 8.48016C19.7586 7.65715 19.5834 6.93436 19.6971 6.30766C19.7883 5.8061 20.0612 5.42936 20.532 5.16875C20.8411 4.99756 21.1446 4.91746 21.4453 4.92955L21.4454 4.92952ZM62.8658 7.39517L62.762 7.51866L62.9333 7.66291C63.1053 7.8069 63.1953 7.96398 63.2038 8.13507C63.2081 8.25568 63.0859 8.45753 62.8435 8.74577L60.3751 11.6845C60.1619 11.9385 60.0023 12.0863 59.8907 12.1214C59.7046 12.1759 59.5151 12.1223 59.3227 11.9611L59.1513 11.8168L59.047 11.9403L60.9987 13.5773L61.1025 13.4539L60.9239 13.3039C60.7519 13.1599 60.6688 13.0082 60.6659 12.8302C60.6616 12.7098 60.7839 12.5083 61.0205 12.2267L62.1342 10.9015C62.1627 10.9371 62.197 10.9662 62.2313 10.9949C62.2656 11.0236 62.293 11.0465 62.3206 11.0696C62.3961 11.1331 62.4857 11.2079 62.6083 11.299L62.359 14.7188L63.5756 15.7395L63.6794 15.6154C63.4553 15.3806 63.3008 15.1456 63.2303 14.9228C63.1657 14.693 63.1479 14.3383 63.1758 13.8585L63.3367 11.7701C63.7897 11.998 64.1926 12.0899 64.5512 12.0394C64.9098 11.9892 65.2009 11.8239 65.4375 11.5423C65.6568 11.2817 65.7647 10.9855 65.7626 10.6675C65.766 10.3429 65.6764 10.0452 65.5071 9.78646C65.338 9.52744 65.0097 9.1934 64.5216 8.78401L62.8659 7.395L62.8658 7.39517ZM63.8991 8.80028C64.1535 8.94374 64.3428 9.06727 64.4733 9.17699C64.7687 9.42485 64.9278 9.70996 64.9562 10.0383C64.9849 10.3667 64.8837 10.6685 64.6416 10.9567C64.3991 11.245 64.0873 11.3933 63.7117 11.3941C63.336 11.3952 62.9256 11.2145 62.4925 10.8514C62.4721 10.8341 62.4444 10.8107 62.4167 10.7876C62.3824 10.7589 62.3481 10.7303 62.3072 10.6957L63.8969 8.80022L63.8991 8.80028ZM14.3253 9.15571L12.7827 10.5919L12.8928 10.7102L13.0569 10.5572C13.2211 10.4044 13.3885 10.3343 13.5595 10.3465C13.6857 10.3635 13.8711 10.5094 14.1218 10.7782L15.7609 12.5361C16.1895 12.9955 16.4555 13.3602 16.5605 13.6304C16.6522 13.9001 16.6486 14.1979 16.5351 14.5364C16.4282 14.8687 16.2396 15.1665 15.9509 15.4356C15.7276 15.6433 15.5075 15.7757 15.277 15.831C15.0462 15.899 14.8364 15.9104 14.6477 15.8657C14.4526 15.8145 14.2344 15.6989 13.9997 15.5129C13.7716 15.3208 13.5679 15.1424 13.4151 14.9785L11.6477 13.083C11.4214 12.8402 11.2945 12.652 11.2863 12.5247C11.2483 12.3393 11.3307 12.1646 11.508 11.9996L11.6788 11.8403L11.5687 11.7225L9.68503 13.4768L9.79562 13.5951L9.95918 13.4421C10.1232 13.2891 10.2851 13.2123 10.4369 13.2304C10.5887 13.2484 10.7867 13.3823 11.0376 13.6512L12.6217 15.35C13.1112 15.8746 13.4743 16.1984 13.7173 16.3275C14.0791 16.5052 14.4579 16.5691 14.8601 16.5008C15.2559 16.4386 15.6966 16.1876 16.169 15.7474C16.6087 15.338 16.8704 14.9348 16.9614 14.5193C17.0517 14.1165 17.0331 13.7541 16.8985 13.426C16.7574 13.1038 16.485 12.7327 16.075 12.2933L14.4322 10.5357C14.2057 10.2932 14.0914 10.118 14.076 10.0096C14.0335 9.77977 14.0974 9.58549 14.2681 9.42636L14.4321 9.27387L14.3221 9.15618L14.3253 9.15571ZM70.1835 15.1929C69.8717 15.195 69.5897 15.2875 69.3284 15.4772C69.1324 15.6196 68.9827 15.7945 68.8787 16.0028C68.7806 16.2183 68.723 16.4592 68.7115 16.7334C68.7004 17.0075 68.73 17.4295 68.793 18.0041C68.8685 18.5808 68.901 18.9457 68.8917 19.0854C68.8904 19.2969 68.8479 19.4827 68.779 19.6323C68.7033 19.7872 68.6137 19.9075 68.4903 19.9971C68.2798 20.1498 68.0352 20.1948 67.7489 20.1366C67.4753 20.0803 67.2214 19.899 67.0106 19.609C66.8261 19.355 66.7099 19.0738 66.6658 18.7845C66.6238 18.4827 66.658 18.2248 66.7458 17.9947C66.846 17.7665 67.0369 17.4954 67.3428 17.1843L67.2484 17.054L65.6009 18.25L65.6959 18.3808C65.8155 18.3162 65.909 18.2925 65.9664 18.2952C66.0289 18.305 66.0877 18.3397 66.13 18.3979C66.172 18.4558 66.2344 18.6325 66.3304 18.9173C66.4269 19.2021 66.4933 19.3857 66.5318 19.4689C66.5996 19.6081 66.6876 19.744 66.7878 19.8819C67.1095 20.3242 67.5038 20.5918 67.9706 20.6851C68.4446 20.773 68.8624 20.6913 69.225 20.4277C69.4138 20.2907 69.5654 20.103 69.6762 19.8897C69.7871 19.6763 69.8501 19.4424 69.8522 19.1861C69.8615 18.9244 69.8286 18.4823 69.7411 17.8588C69.638 17.0916 69.6168 16.5749 69.6928 16.2981C69.7351 16.1121 69.8364 15.9614 69.9815 15.856C70.17 15.7192 70.4022 15.6721 70.6633 15.7263C70.9371 15.7823 71.1568 15.9326 71.331 16.172C71.4891 16.3895 71.5917 16.6369 71.6233 16.9243C71.6621 17.2064 71.6254 17.4763 71.5158 17.7223C71.4063 17.9683 71.2105 18.2324 70.9229 18.5079L71.0179 18.6381L72.6794 17.4318L72.5844 17.3015C72.4546 17.3515 72.3607 17.3752 72.2983 17.3653C72.2302 17.3481 72.1713 17.3127 72.129 17.2548C72.087 17.1966 72.0476 17.0814 72.0106 16.9087C71.9354 16.531 71.7983 16.2209 71.6082 15.9597C71.3131 15.5535 70.9472 15.3093 70.5054 15.2203C70.3945 15.2012 70.2874 15.1921 70.1835 15.1928L70.1835 15.1929ZM6.62393 17.6139L6.54085 17.7416L9.5039 22.1539C9.7599 22.5336 9.90763 22.8324 9.9499 23.0308C9.96611 23.1374 9.92808 23.2946 9.82892 23.5295L9.96444 23.6177L10.9806 22.0533L10.845 21.9656C10.6738 22.1964 10.5381 22.3222 10.4291 22.3584C10.3252 22.3871 10.2333 22.3808 10.1581 22.3319C10.068 22.2735 9.94163 22.1382 9.80712 21.9334L9.2365 21.0825L10.492 19.1497L11.4022 19.3126C11.6988 19.366 11.9012 19.4332 12.0065 19.5015C12.0889 19.5551 12.1374 19.629 12.1488 19.7433C12.1576 19.8453 12.1072 20.0053 11.9878 20.2056L12.1231 20.2935L13.3978 18.3311L13.2625 18.2434C13.1158 18.4365 12.9607 18.5603 12.7895 18.6097C12.6111 18.6541 12.3173 18.6455 11.8861 18.5687L6.6238 17.614L6.62393 17.6139ZM7.59695 18.6184L10.1525 19.0797L9.03934 20.794L7.59695 18.6184V18.6184ZM73.9319 19.5794L72.6702 20.1683L72.7502 20.3188C72.9963 20.2083 73.216 20.1626 73.4013 20.1859C73.5945 20.2053 73.7526 20.2737 73.8717 20.3831C73.9581 20.4692 74.0745 20.6306 74.205 20.8761L74.5378 21.5013L70.529 23.6307C70.236 23.7864 70.0331 23.8635 69.9246 23.8502C69.739 23.8268 69.5839 23.706 69.4661 23.4844L69.369 23.3023L69.2268 23.378L70.4059 25.5946L70.5482 25.5189L70.4516 25.3368C70.3466 25.1388 70.3215 24.9589 70.3779 24.7972C70.4233 24.692 70.6008 24.5467 70.9257 24.3743L74.934 22.2453L75.3255 22.9816C75.4435 23.2032 75.4963 23.3987 75.4968 23.5711C75.4925 23.7358 75.4405 23.9055 75.34 24.0604C75.2701 24.1584 75.1331 24.2821 74.9319 24.4194L75.0118 24.5699L76.2102 23.8622L73.9319 19.5794L73.9319 19.5794ZM3.87786 22.507L2.16287 26.7472L2.31241 26.8079L2.38977 26.6164C2.48069 26.392 2.59787 26.246 2.74647 26.1899C2.85653 26.157 3.08667 26.2113 3.43601 26.3523L7.01341 27.7974C7.27952 27.905 7.45537 27.9953 7.52848 28.0537C7.60663 28.1239 7.64162 28.2057 7.65465 28.3173C7.66581 28.4573 7.65175 28.5871 7.59805 28.7199L7.52069 28.9114L7.67022 28.9721L9.38521 24.7319L8.19568 23.6998L8.12818 23.8664C8.39854 24.1786 8.58131 24.4455 8.67701 24.6872C8.75942 24.8658 8.789 25.0325 8.77358 25.1905C8.75816 25.3486 8.68901 25.5917 8.56434 25.8993L8.18791 26.8302C8.12756 26.9797 8.06688 27.0812 8.01345 27.1176C7.95683 27.1625 7.90167 27.1793 7.84159 27.184C7.78151 27.1888 7.62839 27.1368 7.38727 27.0393L5.56534 26.3035L6.05653 25.0894C6.14718 24.8652 6.25112 24.7041 6.3447 24.6162C6.44678 24.5317 6.55496 24.4787 6.66661 24.4657C6.75486 24.4628 6.94659 24.4917 7.22944 24.5575L7.29071 24.4086L5.36856 23.6319L5.30833 23.7818C5.6175 23.9261 5.80856 24.0996 5.87635 24.2914C5.92739 24.4282 5.88965 24.6645 5.76523 24.9721L5.27457 26.1858L3.0949 25.3058L3.70655 23.7922C3.81767 23.5178 3.91172 23.3328 3.99679 23.2417C4.10897 23.132 4.23247 23.0658 4.3675 23.043C4.50601 23.0119 4.72928 23.0343 5.04404 23.0938L5.1079 22.9361L3.87786 22.507L3.87786 22.507ZM71.0289 26.7414L70.8763 26.7943L71.4838 28.5569L71.6364 28.5045C71.5601 28.2274 71.5441 28.0434 71.583 27.9353C71.6244 27.8357 71.6861 27.7668 71.7709 27.7376C71.8727 27.7025 72.0567 27.6868 72.301 27.707L73.3234 27.7817L74.0736 29.9599L73.3852 30.5768C73.1603 30.7774 72.9827 30.895 72.8639 30.9359C72.7706 30.9681 72.6826 30.9604 72.5856 30.8991C72.5 30.8433 72.4045 30.7054 72.3203 30.4881L72.1676 30.5405L72.9298 32.753L73.0825 32.7006C73.0208 32.4657 73.0186 32.2675 73.0851 32.1023C73.1601 31.9344 73.348 31.7083 73.6744 31.4158L77.6673 27.861L77.618 27.7168L72.3148 27.3328C71.8578 27.3004 71.5309 27.2329 71.3485 27.1439C71.2544 27.0911 71.1536 26.9639 71.0292 26.7413L71.0289 26.7414ZM73.6723 27.8035L76.2756 28.0079L74.3384 29.7363L73.6723 27.8035L73.6723 27.8035ZM7.32404 29.4815C7.21611 29.7878 7.07717 30.0315 6.91023 30.1955C6.73452 30.3572 6.42651 30.5344 5.98602 30.7273L4.05039 31.5315C4.04799 31.0249 3.947 30.6243 3.73938 30.3278C3.53149 30.0313 3.2522 29.8472 2.89359 29.7643C2.56155 29.6875 2.24884 29.7258 1.96626 29.8722C1.6749 30.0167 1.4504 30.232 1.29647 30.5C1.14229 30.7684 0.993231 31.2124 0.849943 31.8325L0.362925 33.9375L0.520249 33.9744L0.570612 33.7559C0.620856 33.5376 0.720812 33.3857 0.869682 33.3004C0.974954 33.2419 1.21025 33.2592 1.57737 33.344L5.3188 34.2079C5.64233 34.2826 5.84569 34.3575 5.92784 34.4409C6.06102 34.5819 6.09946 34.7747 6.0431 35.0194L5.99274 35.2379L6.15006 35.2742L6.7238 32.7929L6.56596 32.7566L6.51404 32.9839C6.46353 33.202 6.36559 33.3454 6.20821 33.4286C6.10241 33.4867 5.86743 33.4694 5.50882 33.3865L3.82188 32.9969C3.84075 32.9554 3.85072 32.9117 3.86082 32.8682C3.87092 32.8243 3.87932 32.7896 3.8873 32.7545C3.90963 32.6586 3.93551 32.5448 3.96103 32.3944L7.12345 31.0635L7.48069 29.5173L7.32389 29.4815L7.32404 29.4815ZM2.46689 30.7003C2.55237 30.7051 2.64043 30.718 2.73221 30.7392C3.09933 30.8242 3.37304 31.0347 3.54477 31.3686C3.71624 31.7028 3.74169 32.1509 3.61435 32.7011C3.6085 32.7274 3.6 32.7622 3.59202 32.7971C3.58192 32.8409 3.57206 32.8843 3.55983 32.9366L1.14702 32.3793C1.15925 32.0879 1.18324 31.8631 1.22179 31.697C1.30872 31.3214 1.49119 31.0507 1.77112 30.8762C1.98106 30.7451 2.21042 30.6858 2.46687 30.7003L2.46689 30.7003ZM78.5714 31.8859L77.1846 32.0084L77.2085 32.177C77.4775 32.1574 77.6994 32.1898 77.8653 32.2751C78.0402 32.359 78.1658 32.4772 78.2402 32.6207C78.2918 32.7309 78.3457 32.9224 78.3845 33.1977L78.4832 33.8992L73.9884 34.5306C73.6598 34.5769 73.4426 34.5803 73.3451 34.5306C73.1792 34.4454 73.0746 34.2791 73.0398 34.0304L73.0107 33.826L72.8508 33.8483L73.2002 36.3342L73.3606 36.3119L73.3321 36.1075C73.3007 35.8854 73.3392 35.708 73.4474 35.5751C73.5263 35.4917 73.742 35.4157 74.1062 35.3645L78.6016 34.733L78.7174 35.5585C78.7525 35.8072 78.7361 36.0087 78.6774 36.1708C78.6173 36.3241 78.5103 36.4657 78.3627 36.577C78.2636 36.6453 78.0926 36.7147 77.8565 36.7752L77.8799 36.9439L79.248 36.6881L78.5715 31.886L78.5714 31.8859ZM0.220542 35.738L0.147332 37.8436L0.30829 37.8493L0.316078 37.6246C0.323788 37.401 0.392744 37.2329 0.522207 37.1208C0.623492 37.0438 0.858096 37.0157 1.22575 37.0285L3.62817 37.112C4.25555 37.1338 4.70219 37.2032 4.96723 37.3201C5.22323 37.4457 5.4308 37.6597 5.59031 37.979C5.75008 38.2896 5.82791 38.6329 5.81409 39.0272C5.80346 39.3319 5.74144 39.5805 5.61783 39.7826C5.50245 39.9938 5.36235 40.1505 5.19727 40.2522C5.02314 40.354 4.78729 40.4265 4.49008 40.4608C4.19287 40.4866 3.92289 40.5038 3.69878 40.4961L1.10788 40.4063C0.776382 40.3946 0.553529 40.3507 0.457826 40.2668C0.299918 40.1626 0.234109 39.9813 0.24235 39.7396L0.250658 39.5066L0.0896998 39.5009L-0.00012207 42.0752L0.160836 42.0798L0.168624 41.8557C0.176333 41.6317 0.236169 41.4633 0.356062 41.369C0.476222 41.2747 0.711437 41.2291 1.07883 41.2419L3.40078 41.3228C4.11801 41.3478 4.60335 41.3198 4.86654 41.2393C5.24802 41.1091 5.56117 40.887 5.79697 40.5544C6.03277 40.2308 6.16639 39.7422 6.18898 39.0969C6.20998 38.4967 6.10921 38.0268 5.87952 37.6689C5.65834 37.3207 5.38848 37.0781 5.06124 36.941C4.73372 36.8129 4.27884 36.7435 3.67805 36.7225L1.27563 36.639C0.94386 36.6273 0.738473 36.5842 0.651011 36.5186C0.458012 36.3861 0.366031 36.2037 0.374272 35.9707L0.382035 35.7475L0.220559 35.7422L0.220542 35.738ZM73.353 38.4231L73.3084 40.9686L73.4693 40.9713L73.4735 40.7565C73.4761 40.613 73.5143 40.4792 73.5882 40.3549C73.6438 40.2661 73.7078 40.2045 73.7798 40.179C73.8792 40.1447 74.0769 40.1213 74.3727 40.1266L78.2112 40.1945C78.5696 40.2007 78.793 40.2494 78.8815 40.3227C79.0229 40.4327 79.0919 40.6136 79.0877 40.8556L79.0835 41.0704L79.245 41.0735L79.2896 38.528L79.1282 38.5248L79.1245 38.7314C79.1219 38.8748 79.0837 39.0081 79.0098 39.1325C78.9632 39.2214 78.8995 39.2828 78.8182 39.3083C78.7281 39.3517 78.5301 39.3663 78.2252 39.3608L74.3868 39.2928C74.0372 39.2867 73.805 39.247 73.7165 39.174C73.575 39.064 73.5063 38.883 73.5108 38.6323L73.5145 38.4263L73.353 38.4232V38.4231ZM73.07 42.2034L73.0508 42.3638C73.1821 42.398 73.2669 42.4448 73.3068 42.4857C73.3461 42.5356 73.3649 42.601 73.3561 42.6725C73.3476 42.7434 73.2718 42.9146 73.1479 43.1882C73.024 43.4619 72.9474 43.6426 72.9189 43.7294C72.8737 43.8774 72.8449 44.036 72.8239 44.2052C72.7572 44.748 72.8628 45.2126 73.1406 45.5989C73.4272 45.9865 73.788 46.2114 74.2331 46.2662C74.4646 46.2949 74.7039 46.2613 74.9309 46.1806C75.1577 46.1003 75.3634 45.9719 75.5399 45.7857C75.7255 45.6008 76.0029 45.2556 76.3645 44.7402C76.8129 44.1087 77.1505 43.7166 77.3951 43.566C77.553 43.4589 77.7295 43.4176 77.9076 43.4394C78.1391 43.4681 78.3406 43.5923 78.4948 43.8098C78.6564 44.0375 78.715 44.2972 78.6786 44.5907C78.6459 44.8577 78.5518 45.1083 78.379 45.34C78.2147 45.5727 78.0035 45.7451 77.7554 45.85C77.5077 45.9552 77.1838 46.0149 76.7855 46.0202L76.7658 46.1805L78.8048 46.4306L78.824 46.2708C78.6948 46.2187 78.61 46.1724 78.5711 46.1224C78.5331 46.0637 78.5141 45.998 78.5229 45.9268C78.5319 45.8553 78.5815 45.7443 78.6724 45.5932C78.8755 45.2656 78.9872 44.9448 79.0265 44.6244C79.0876 44.1263 78.9869 43.6983 78.7248 43.3319C78.4526 42.9733 78.1162 42.7694 77.689 42.7171C77.4487 42.6876 77.2193 42.7136 77.0015 42.7954C76.7825 42.886 76.5754 43.0228 76.38 43.2157C76.1846 43.4086 75.9185 43.737 75.5721 44.2C75.2334 44.6734 75.0083 44.9618 74.906 45.0577C74.7605 45.2112 74.6029 45.3185 74.4506 45.381C74.2895 45.4426 74.1413 45.4696 73.9901 45.451C73.7319 45.4191 73.5228 45.2851 73.353 45.0473C73.1911 44.8194 73.1295 44.514 73.1733 44.158C73.2119 43.8466 73.319 43.562 73.4843 43.3205C73.6595 43.0708 73.8608 42.9056 74.0819 42.7975C74.3111 42.6992 74.6353 42.6309 75.0716 42.6123L75.0913 42.4519L73.07 42.2034L73.07 42.2034ZM4.80774 43.5463C4.73494 43.5476 4.66205 43.5547 4.58915 43.5675C4.20022 43.6361 3.9057 43.8247 3.69037 44.1539C3.53166 44.3911 3.4527 44.7142 3.43595 45.1361C3.26023 44.8117 3.04565 44.5768 2.78433 44.4408C2.51291 44.2973 2.24106 44.2541 1.94943 44.3054C1.6049 44.3659 1.32487 44.534 1.1005 44.8102C0.876131 45.0865 0.747917 45.4459 0.727181 45.8957C0.706446 46.1906 0.737445 46.5764 0.820121 47.0445L1.26612 49.5693L1.425 49.5413L1.38658 49.3208C1.3475 49.1 1.37944 48.9211 1.48471 48.7936C1.56633 48.6881 1.78984 48.6124 2.15192 48.5487L5.93348 47.8825C6.2602 47.8248 6.47686 47.814 6.58665 47.8674C6.76423 47.9453 6.87538 48.108 6.91738 48.3463L6.95581 48.5668L7.11521 48.5388L6.62922 45.7847C6.51225 45.1222 6.365 44.6475 6.1853 44.3516C6.004 44.0464 5.76548 43.8334 5.46774 43.6947C5.24464 43.5907 5.02621 43.5424 4.80782 43.5463L4.80774 43.5463ZM5.08862 44.5337C5.33553 44.5418 5.56493 44.6317 5.77348 44.8066C6.06032 45.0382 6.24484 45.4152 6.33682 45.9362C6.39451 46.2629 6.41673 46.5958 6.39653 46.9454L4.0024 47.3672C3.97077 47.2907 3.94475 47.1952 3.91258 47.0642C3.89078 46.9407 3.85545 46.7917 3.82276 46.6066C3.75124 46.2001 3.75197 45.8452 3.82587 45.5408C3.89233 45.2467 4.02469 45.014 4.21477 44.8533C4.40511 44.6923 4.60606 44.5933 4.83574 44.5529C4.92187 44.5376 5.0063 44.5309 5.0886 44.5336L5.08862 44.5337ZM2.23802 45.1947C2.40092 45.1891 2.55927 45.2176 2.7126 45.2726C2.91863 45.3546 3.08765 45.489 3.21366 45.685C3.3394 45.8814 3.43958 46.1914 3.51429 46.6154C3.54247 46.774 3.56869 46.9241 3.58491 47.0668C3.59926 47.201 3.60357 47.3276 3.60464 47.4368L1.35175 47.8337C1.2494 47.615 1.17772 47.3634 1.12641 47.072C1.03151 46.5335 1.07423 46.1068 1.27335 45.7899C1.46209 45.4649 1.72894 45.2727 2.07347 45.2118C2.1287 45.2021 2.18377 45.1966 2.23806 45.1947L2.23802 45.1947ZM72.1432 48.4013L71.367 50.7891L71.5207 50.8394L71.5845 50.6433C71.6536 50.4302 71.7665 50.2872 71.922 50.2152C72.0294 50.1746 72.2565 50.2014 72.6063 50.3149L76.9246 51.7158L76.6671 52.5086C76.5895 52.7475 76.4862 52.9214 76.3623 53.0415C76.2411 53.1528 76.0831 53.2335 75.9018 53.2688C75.7827 53.2866 75.5976 53.2743 75.3592 53.2252L75.3067 53.3871L76.6489 53.7565L78.1479 49.1428L76.8468 48.6452L76.7943 48.8076C77.045 48.9075 77.2302 49.0337 77.3421 49.1833C77.4625 49.3352 77.5232 49.4965 77.5274 49.658C77.5256 49.78 77.49 49.9759 77.4044 50.2402L77.1858 50.9137L72.867 49.5133C72.5509 49.4107 72.3545 49.3184 72.2886 49.231C72.1769 49.082 72.1554 48.8864 72.233 48.6478L72.2963 48.4512L72.1432 48.4013L72.1432 48.4013ZM8.21941 51.8602C8.15658 51.8591 8.09381 51.8713 8.03094 51.8955C7.9052 51.9435 7.82076 52.0239 7.76095 52.143C7.70406 52.2707 7.70401 52.395 7.75213 52.5207C7.80051 52.6464 7.88421 52.7393 8.00862 52.7879C8.12772 52.848 8.25283 52.8477 8.3783 52.7993C8.50377 52.751 8.59659 52.6672 8.65349 52.5399C8.70507 52.4238 8.71382 52.2961 8.66544 52.1705C8.61732 52.0448 8.52512 51.9551 8.40894 51.9038C8.34514 51.8754 8.28226 51.8613 8.21943 51.8602L8.21941 51.8602ZM70.6199 52.8388L69.5831 55.1643L69.7305 55.2302L69.8183 55.0336C69.8765 54.9023 69.964 54.7943 70.0805 54.7088C70.1661 54.649 70.2492 54.6171 70.3255 54.6216C70.4305 54.629 70.6214 54.6847 70.892 54.8053L74.3987 56.3666C74.7265 56.5127 74.9131 56.6449 74.9657 56.7469C75.0529 56.9034 75.0459 57.0966 74.9475 57.3176L74.8598 57.5138L75.0072 57.5797L76.0441 55.2541L75.8961 55.1882L75.8125 55.3766C75.7543 55.5075 75.6662 55.6161 75.5498 55.7014C75.4724 55.7651 75.3893 55.7968 75.3047 55.7885C75.2045 55.793 75.0168 55.7294 74.7383 55.6054L71.2316 54.0436C70.912 53.9014 70.7136 53.7741 70.6609 53.6721C70.5737 53.5153 70.5812 53.322 70.6833 53.093L70.7674 52.9047L70.6199 52.8388H70.6199ZM8.7697 54.7031C8.49863 54.6956 8.24079 54.7584 7.99555 54.894C7.79165 55.0072 7.61817 55.1747 7.48206 55.3729C7.34595 55.5714 7.25516 55.7958 7.22193 56.05C7.18072 56.3088 7.15937 56.7508 7.17001 57.3804C7.17878 58.1545 7.13621 58.6701 7.02722 58.9355C6.96262 59.1148 6.84424 59.2523 6.68713 59.3391C6.4835 59.452 6.24703 59.4703 5.99449 59.3848C5.72971 59.2958 5.52951 59.1195 5.38595 58.8607C5.25569 58.6256 5.18441 58.3681 5.18813 58.0788C5.18414 57.794 5.25368 57.5303 5.39218 57.3C5.53069 57.0694 5.7575 56.8308 6.07651 56.5927L5.99811 56.4516L4.20162 57.4468L4.28054 57.5869C4.41559 57.5529 4.51146 57.5416 4.57235 57.5589C4.63775 57.5841 4.69173 57.6259 4.72656 57.6886C4.76138 57.7513 4.78643 57.8708 4.80185 58.0466C4.83029 58.4305 4.92824 58.7548 5.08483 59.0372C5.32834 59.4763 5.66152 59.7636 6.08899 59.9057C6.52018 60.0359 6.91248 60.0032 7.28891 59.7947C7.50078 59.6773 7.67116 59.5211 7.79929 59.3272C7.92344 59.1255 8.00957 58.8935 8.05423 58.6226C8.09889 58.3521 8.12077 57.9294 8.12848 57.3513C8.12369 56.7698 8.13643 56.4045 8.16275 56.2669C8.19013 56.057 8.25496 55.8776 8.34136 55.7376C8.43546 55.5937 8.53916 55.4843 8.67262 55.4107C8.89991 55.2846 9.14847 55.2698 9.42548 55.3625C9.69025 55.4515 9.91986 55.6626 10.0937 55.9763C10.2458 56.2505 10.3269 56.5439 10.3352 56.8366C10.3402 57.1413 10.2745 57.3927 10.1591 57.6103C10.0315 57.8244 9.8094 58.0706 9.46753 58.3419L9.54593 58.483L11.3263 57.4966L11.2485 57.3555C11.1219 57.4049 11.0263 57.4172 10.9696 57.4074C10.9088 57.3901 10.8544 57.3481 10.8196 57.2854C10.7848 57.2227 10.7449 57.0394 10.6841 56.7453C10.6235 56.4509 10.5793 56.2604 10.5517 56.1735C10.5012 56.0271 10.4308 55.882 10.3481 55.733C10.0828 55.2548 9.72424 54.9411 9.27231 54.7918C9.09985 54.7374 8.93236 54.7075 8.76972 54.703L8.7697 54.7031ZM69.7692 56.9726C69.6854 56.9724 69.6012 56.9754 69.5164 56.982C68.6149 57.0534 67.8984 57.5053 67.3803 58.3341C67.0906 58.798 66.9371 59.2628 66.941 59.7304C66.9371 60.1932 67.0793 60.6945 67.3715 61.2258L67.5184 61.1589C67.2855 60.601 67.1828 60.1563 67.2027 59.8197C67.2152 59.4783 67.3275 59.1466 67.5319 58.8198C67.7648 58.4473 68.0653 58.1696 68.4255 57.9823C68.7934 57.7995 69.1779 57.7433 69.6077 57.8002C70.0331 57.8647 70.4711 58.0434 70.9276 58.3284C71.4757 58.6706 71.8923 59.0365 72.1701 59.4212C72.4479 59.8061 72.5815 60.1856 72.5854 60.5684C72.5865 60.939 72.4795 61.2953 72.2703 61.63C72.0231 62.0253 71.6951 62.2966 71.2936 62.4477C70.8893 62.5867 70.3864 62.5794 69.7739 62.4083L69.7022 62.5224L71.4863 63.4772L71.5667 63.348C71.4718 63.2462 71.4016 63.1391 71.3788 63.0403C71.3663 62.9585 71.3692 62.8862 71.412 62.8177C71.4405 62.772 71.5181 62.7147 71.6332 62.6491C72.0394 62.4057 72.347 62.1009 72.5751 61.7359C72.8651 61.272 73.0219 60.7673 73.0408 60.2296C73.052 59.6868 72.9197 59.1704 72.639 58.6885C72.363 58.1992 71.9703 57.7954 71.4681 57.4816C70.922 57.1408 70.3564 56.974 69.7692 56.9726L69.7692 56.9726ZM12.1831 58.9708C12.0858 58.9726 11.9967 59.0036 11.9141 59.0616C11.8038 59.1386 11.7409 59.2373 11.7116 59.3672C11.6874 59.5045 11.7179 59.6261 11.7952 59.7361C11.8723 59.8464 11.9757 59.916 12.1083 59.9328C12.2383 59.962 12.3601 59.9322 12.4702 59.8549C12.5805 59.7779 12.6501 59.6745 12.6743 59.5369C12.6963 59.4123 12.6735 59.286 12.5964 59.1757C12.519 59.0655 12.4085 59.0006 12.2833 58.9786C12.2489 58.9725 12.2155 58.9702 12.1831 58.9708L12.1831 58.9708ZM65.0453 61.3337L64.9352 61.4515C65.0213 61.5564 65.063 61.6437 65.0712 61.7005C65.0734 61.7643 65.0501 61.8283 65.0012 61.8806C64.9522 61.9332 64.7905 62.0276 64.5292 62.1764C64.2679 62.3254 64.0997 62.426 64.0256 62.4794C63.9019 62.5723 63.7855 62.6845 63.6694 62.8094C63.2961 63.2095 63.1084 63.6473 63.106 64.1231C63.1106 64.6051 63.2702 64.9991 63.5983 65.3046C63.7687 65.4635 63.9825 65.5765 64.2135 65.6445C64.4446 65.7128 64.6864 65.7294 64.9384 65.6824C65.1973 65.6414 65.6248 65.525 66.2208 65.3202C66.9546 65.0723 67.4584 64.9536 67.7448 64.9751C67.9354 64.981 68.1028 65.0511 68.2338 65.1733C68.4048 65.3325 68.4951 65.5511 68.4919 65.8178C68.4887 66.097 68.3834 66.3417 68.1814 66.5582C67.998 66.7548 67.7748 66.902 67.4986 66.9878C67.229 67.08 66.9559 67.0962 66.6938 67.0356C66.4314 66.9747 66.1347 66.8334 65.8091 66.6039L65.699 66.7217L67.2016 68.1216L67.3117 68.0027C67.238 67.8848 67.1967 67.7977 67.1943 67.7345C67.1983 67.6643 67.2215 67.6 67.2707 67.5477C67.3193 67.4948 67.4255 67.4344 67.5879 67.365C67.9447 67.2192 68.2232 67.0255 68.4436 66.7891C68.786 66.4222 68.9555 66.0164 68.9587 65.5661C68.9493 65.1161 68.7973 64.7532 68.482 64.4599C68.305 64.2949 68.1041 64.1814 67.8797 64.1195C67.6492 64.0643 67.4011 64.054 67.1294 64.0951C66.8577 64.1363 66.4495 64.2462 65.8968 64.4179C65.3449 64.6025 64.9928 64.7039 64.8537 64.7214C64.6456 64.7604 64.4546 64.754 64.2945 64.7152C64.1278 64.6703 63.9924 64.6055 63.8807 64.5014C63.6904 64.3242 63.6 64.0926 63.6024 63.8004C63.6053 63.5215 63.7345 63.2379 63.9794 62.9754C64.1934 62.7461 64.448 62.5784 64.7239 62.4799C65.0124 62.3811 65.272 62.366 65.5147 62.4083C65.7577 62.463 66.0615 62.5982 66.4254 62.8389L66.5355 62.7212L65.0453 61.3337L65.0453 61.3337ZM13.8898 61.9657C13.7077 61.9759 13.5347 62.0142 13.3706 62.0814C13.0481 62.2225 12.6768 62.4952 12.2371 62.9048L10.478 64.5429C10.235 64.769 10.06 64.8834 9.95149 64.8988C9.72154 64.9413 9.52713 64.8772 9.3679 64.7063L9.21524 64.5424L9.09686 64.6529L10.5346 66.1945L10.6524 66.0839L10.4998 65.9205C10.3469 65.7563 10.2765 65.5891 10.289 65.4182C10.306 65.292 10.4525 65.1068 10.7215 64.8563L12.4801 63.2177C12.9395 62.7897 13.3042 62.5241 13.5746 62.4191C13.8444 62.3272 14.143 62.3311 14.4817 62.4446C14.8145 62.5514 15.1122 62.7395 15.3815 63.0283C15.5894 63.2512 15.7213 63.4718 15.7766 63.7018C15.8447 63.9327 15.8566 64.1418 15.8119 64.3307C15.7606 64.5257 15.6447 64.7437 15.4589 64.9782C15.2666 65.2062 15.0881 65.4095 14.9241 65.5625L13.0273 67.3287C12.7844 67.5548 12.596 67.6816 12.4687 67.6898C12.2828 67.7278 12.1083 67.6452 11.9432 67.4683L11.7838 67.2976L11.6659 67.4076L13.4214 69.2895L13.5393 69.1795L13.3866 69.0161C13.2335 68.8522 13.1567 68.6909 13.1748 68.5393C13.1926 68.3876 13.3266 68.1889 13.5959 67.9384L15.2958 66.3553C15.8208 65.8662 16.1451 65.5033 16.274 65.2605C16.4518 64.8987 16.5157 64.5202 16.4474 64.118C16.3852 63.7226 16.1337 63.2825 15.6935 62.8104C15.2836 62.371 14.88 62.1094 14.4645 62.0186C14.263 61.9734 14.0718 61.9554 13.8898 61.9657L13.8898 61.9657Z" fill="#0D2A54"/>
</svg>
